<?xml version="1.0"?>
<svg width="1338.0622253417969" height="734.7353210449219" xmlns="http://www.w3.org/2000/svg" xmlns:svg="http://www.w3.org/2000/svg" xmlns:xlink="http://www.w3.org/1999/xlink">
 <!-- svg-source:excalidraw -->
 <defs>
  <style>@font-face {
        font-family: &quot;Virgil&quot;;
        src: url(&quot;https://excalidraw.com/Virgil.woff2&quot;);
      }
      @font-face {
        font-family: &quot;Cascadia&quot;;
        src: url(&quot;https://excalidraw.com/Cascadia.woff2&quot;);
      }</style>
 </defs>
 <g class="layer">
  <title>Layer 1</title>
  <rect fill="#191919" height="734.735321" id="svg_1" stroke="#3f3f3f" width="1338.062225" x="1" y="0"/>
  <g id="svg_2">
   <path d="m681.358252,302.615985c16.12933,1.38338 32.26442,5.89857 45.55386,11.02064c13.28943,5.12208 25.85521,12.49044 34.18277,19.71183c8.32757,7.22138 13.53036,15.85898 15.78262,23.61649c2.25226,7.75752 1.99841,15.38106 -2.26907,22.92859c-4.26747,7.54752 -13.12922,15.77272 -23.33579,22.35656c-10.20656,6.58383 -23.59397,12.7823 -37.90359,17.14645c-14.30962,4.36414 -31.08226,7.50484 -47.95412,9.03841c-16.87186,1.53358 -36.1178,1.65392 -53.27704,0.16302c-17.15925,-1.49089 -34.88944,-4.86729 -49.67843,-9.10838c-14.78899,-4.2411 -28.99162,-10.08224 -39.05554,-16.33821c-10.06391,-6.25596 -17.06755,-13.39505 -21.32796,-21.19758c-4.26041,-7.80253 -6.02472,-17.6988 -4.23452,-25.61761c1.79021,-7.9188 6.8273,-15.12277 14.97574,-21.89523c8.14844,-6.77246 20.68933,-13.40772 33.91491,-18.73953c13.22557,-5.33181 29.20129,-10.5695 45.43855,-13.25133c16.23727,-2.68183 35.49781,-3.02398 51.98504,-2.83966c16.48722,0.18433 37.74166,2.69413 46.93832,3.94558c9.19666,1.25145 9.23249,2.49171 8.24164,3.56313m-52.85585,-8.97363c16.4427,-0.5994 33.73703,3.05149 49.06587,6.64293c15.32884,3.59144 30.63217,8.9929 42.90715,14.90571c12.27498,5.9128 24.15988,12.94971 30.74271,20.57113c6.58283,7.62141 8.66643,17.13291 8.75428,25.15736c0.08785,8.02446 -2.0096,15.94694 -8.22716,22.98938c-6.21756,7.04244 -17.27054,13.54482 -29.07819,19.26525c-11.80766,5.72044 -26.02051,11.3398 -41.76772,15.05737c-15.7472,3.71758 -35.41711,6.47192 -52.71549,7.24806c-17.29838,0.77614 -35.07914,-0.26599 -51.07478,-2.59119c-15.99563,-2.3252 -31.72087,-6.03224 -44.89904,-11.36c-13.17818,-5.32777 -25.69459,-13.5559 -34.17,-20.6066c-8.47541,-7.0507 -13.93493,-14.25526 -16.68246,-21.6976c-2.74752,-7.44234 -3.81332,-15.33855 0.19732,-22.95643c4.01064,-7.61788 13.57766,-15.87276 23.86652,-22.75088c10.28886,-6.87811 23.67929,-13.81129 37.86666,-18.5178c14.18737,-4.70652 33.30992,-7.83736 47.25756,-9.72128c13.94764,-1.88392 30.29322,-1.98123 36.42828,-1.58226c6.13506,0.39898 0.27071,2.59256 0.38206,3.97611" fill="none" id="svg_3" stroke="#ffff56"/>
  </g>
  <g id="svg_4" transform="matrix(1 0 0 1 0 0)">
   <text fill="#ff5656" font-family="Virgil, Segoe UI Emoji" font-size="28px" id="svg_5" text-anchor="start" x="503.02652" y="370.136261">Freelance Web Dev</text>
  </g>
  <g id="svg_6" transform="matrix(1 0 0 1 0 0)">
   <g id="svg_7" transform="translate(785.4281126834478 370.2580633998606) rotate(0 70.60397804804927 2.374823704985687)">
    <path d="m-1.14932,-0.30565c23.87317,1.16797 119.70537,5.57582 143.50659,6.56702m-141.90912,-7.7731c23.87908,0.86824 118.04878,4.49588 141.48173,5.89402" fill="none" id="svg_8" stroke="#7fff00"/>
   </g>
   <g id="svg_9" transform="translate(785.4281126834478 370.2580633998606) rotate(0 70.60397804804927 2.374823704985687)">
    <path d="m112.7752,14.9486c7.82663,-2.91018 13.28237,-6.3853 29.05409,-9.7719m-29.24553,8.52084c9.2397,-2.21493 15.11125,-5.31749 29.16183,-9.0148" fill="none" id="svg_10" stroke="#7fff00"/>
   </g>
   <g id="svg_11" transform="translate(785.4281126834478 370.2580633998606) rotate(0 70.60397804804927 2.374823704985687)">
    <path d="m113.74746,-5.54957c7.47888,1.72379 12.71439,2.89196 28.08183,10.72627m-28.27328,-11.97733c8.80256,3.16378 14.41863,5.44754 28.18958,11.48337" fill="none" id="svg_12" stroke="#7fff00"/>
   </g>
  </g>
  <g id="svg_13" transform="matrix(1 0 0 1 0 0)">
   <path d="m997.276902,344.96611c9.92319,0.64992 21.55065,3.87206 28.42338,7.40913c6.87274,3.53707 11.67317,9.01032 12.81303,13.81331c1.13985,4.80299 -1.24608,10.76818 -5.97391,15.00465c-4.72783,4.23647 -13.07104,7.98546 -22.39308,10.41419c-9.32205,2.42874 -23.08704,4.37199 -33.53919,4.15823c-10.45214,-0.21377 -21.17543,-2.40586 -29.17367,-5.44082c-7.99824,-3.03495 -15.75948,-7.98133 -18.81575,-12.7689c-3.05628,-4.78758 -2.86331,-11.35033 0.4781,-15.95656c3.34141,-4.60623 11.40289,-8.82437 19.57034,-11.6808c8.16746,-2.85643 20.9353,-4.60644 29.43437,-5.45776c8.49906,-0.85133 17.81701,0.17937 21.56002,0.34982c3.74302,0.17046 1.26916,0.24722 0.89807,0.67293m-43.55571,0.26693c8.37902,-2.5075 22.62811,-3.26377 33.04131,-2.49652c10.4132,0.76724 21.76677,3.53068 29.43791,7.09997c7.67114,3.5693 14.04135,9.63099 16.58894,14.3158c2.54759,4.68481 2.18255,9.69626 -1.3034,13.79307c-3.48595,4.0968 -11.42673,7.91913 -19.6123,10.78776c-8.18557,2.86863 -19.23913,6.29676 -29.50113,6.42402c-10.26201,0.12726 -23.10859,-3.02428 -32.0709,-5.66046c-8.96232,-2.63618 -17.39642,-5.77646 -21.70299,-10.15664c-4.30657,-4.38018 -5.73817,-11.29132 -4.13642,-16.12443c1.60175,-4.83312 8.90687,-10.02229 13.74692,-12.87426c4.84005,-2.85198 12.6634,-3.68167 15.29337,-4.23761c2.62997,-0.55593 -0.26739,0.43034 0.48646,0.902" fill="none" id="svg_14" stroke="#00ff7f"/>
  </g>
  <g id="svg_17" transform="matrix(1 0 0 1 0 0)">
   <g id="svg_18" transform="translate(770.2419660820967 337.946044013379) rotate(0 32.1040933675572 -25.450725134629153)">
    <path d="m-0.31635,0.86629c10.29489,-8.49972 51.85775,-43.88032 62.57158,-52.63403m-60.5368,52.04323c10.63058,-8.28394 52.48304,-42.35945 62.8061,-50.84124" fill="none" id="svg_19" stroke="#7fff00"/>
   </g>
   <g id="svg_20" transform="translate(770.2419660820967 337.946044013379) rotate(0 32.1040933675572 -25.450725134629153)">
    <path d="m50.62435,-26.19191c2.88109,-5.8847 8.29183,-16.24167 12.82865,-24.23818m-14.8788,25.09357c4.81563,-8.24146 10.17944,-16.78859 16.00294,-25.89563" fill="none" id="svg_21" stroke="#7fff00"/>
   </g>
   <g id="svg_22" transform="translate(770.2419660820967 337.946044013379) rotate(0 32.1040933675572 -25.450725134629153)">
    <path d="m37.64368,-42.08601c7.19898,-0.43868 17.02952,-5.38385 25.80932,-8.34408m-27.85947,9.19947c9.03893,-3.0773 18.55876,-6.53561 28.98361,-10.00153" fill="none" id="svg_23" stroke="#7fff00"/>
   </g>
  </g>
  <g id="svg_24" transform="matrix(1 0 0 1 0 0)">
   <path d="m906.551969,269.452014c12.27419,-0.27949 28.17389,0.77569 40.61892,1.67485c12.44503,0.89915 25.4846,1.80733 34.05124,3.72011c8.56664,1.91277 15.32384,5.15513 17.34861,7.75653c2.02477,2.6014 -0.45901,5.43599 -5.19998,7.85185c-4.74098,2.41585 -13.07609,4.97232 -23.24587,6.6433c-10.16978,1.67098 -24.7408,2.84586 -37.77282,3.38257c-13.03201,0.53672 -27.9513,0.51848 -40.41926,-0.1623c-12.46796,-0.68078 -25.53859,-1.96781 -34.38847,-3.92239c-8.84989,-1.95458 -15.62726,-5.17736 -18.71085,-7.80507c-3.08359,-2.62771 -3.43315,-5.47216 0.20933,-7.96121c3.64247,-2.48905 11.71683,-5.15849 21.64552,-6.9731c9.92869,-1.81462 29.82728,-3.12847 37.92662,-3.91457c8.09934,-0.78611 8.02886,-0.73175 10.66942,-0.80206c2.64057,-0.07032 4.85777,-0.06834 5.17395,0.38017m-7.91279,0.72014c12.10274,-0.2274 27.26422,0.34052 39.72916,1.33104c12.46494,0.99053 26.4753,2.61455 35.06047,4.61211c8.58517,1.99756 14.23749,4.93007 16.45054,7.37324c2.21304,2.44316 1.46173,4.91622 -3.17227,7.28573c-4.634,2.36951 -14.3776,4.96768 -24.63174,6.93132c-10.25413,1.96363 -24.17903,4.30076 -36.89307,4.85048c-12.71403,0.54973 -26.66693,-0.58994 -39.39116,-1.55214c-12.72423,-0.96219 -27.61459,-2.06315 -36.95424,-4.22102c-9.33964,-2.15786 -16.15013,-6.01656 -19.08364,-8.72618c-2.93352,-2.70962 -2.56609,-5.07871 1.48253,-7.53155c4.04861,-2.45285 13.31799,-5.25718 22.80917,-7.1855c9.49118,-1.92833 27.00876,-3.94235 34.13793,-4.38443c7.12916,-0.44208 6.91888,1.62805 8.63704,1.73195c1.71816,0.1039 1.15312,-1.12994 1.67193,-1.10857" fill="none" id="svg_25" stroke="#00ff7f"/>
  </g>
  <g id="svg_28" transform="matrix(1 0 0 1 0 0)">
   <g id="svg_29" transform="translate(771.496 386.024)">
    <path d="m0.84478,-0.88816c27.02901,15.28187 133.82465,76.36033 160.6139,91.83243m-161.62952,-92.81931c27.44261,15.42312 136.38512,78.81821 163.7357,94.11092" fill="none" id="svg_30" stroke="#7fff00"/>
   </g>
   <g id="svg_31" transform="translate(771.496 386.024)">
    <path d="m134.18585,85.22501c6.15108,1.21754 14.92517,3.51297 27.49777,5.63711m-26.76438,-4.01747c7.71276,2.50904 14.38168,3.40726 27.70968,4.59843" fill="none" id="svg_32" stroke="#7fff00"/>
   </g>
   <g id="svg_33" transform="translate(771.496 386.024)">
    <path d="m144.37321,67.41104c3.73975,5.57151 10.06493,12.14918 17.31041,23.45108m-16.57701,-21.83145c5.15721,7.12263 9.13201,12.73187 17.52231,22.41241" fill="none" id="svg_34" stroke="#7fff00"/>
   </g>
  </g>
  <g id="svg_35" transform="matrix(1 0 0 1 0 0)">
   <path d="m1009.965546,443.25118c12.60073,-1.13407 28.1342,0.55406 40.52013,2.57963c12.38593,2.02557 25.2902,5.72976 33.79546,9.5738c8.50526,3.84405 14.32165,8.71946 17.2361,13.49047c2.91446,4.77102 3.64769,10.44064 0.25063,15.13561c-3.39706,4.69498 -11.04461,9.60817 -20.63297,13.03424c-9.58836,3.42608 -23.88972,6.16371 -36.89719,7.52222c-13.00748,1.35852 -28.29946,1.56098 -41.14768,0.62885c-12.84823,-0.93214 -25.92904,-3.08168 -35.94167,-6.22166c-10.01263,-3.13997 -19.00203,-8.25138 -24.13411,-12.61819c-5.13208,-4.36682 -7.9163,-8.6687 -6.65837,-13.58269c1.25792,-4.91399 6.85452,-11.53651 14.20593,-15.90124c7.35141,-4.36473 17.72318,-8.021 29.90253,-10.28716c12.17936,-2.26617 33.77599,-3.10235 43.17359,-3.30983c9.39761,-0.20747 13.26916,1.44004 13.21204,2.06499m8.59796,1.28339c12.21765,0.97719 25.0772,2.054 34.35037,5.59378c9.27318,3.53977 17.69192,10.96357 21.28868,15.64487c3.59677,4.6813 3.26596,7.90186 0.2919,12.44293c-2.97406,4.54108 -9.44565,10.7514 -18.13627,14.80351c-8.69061,4.0521 -21.50966,7.55451 -34.00743,9.50912c-12.49777,1.95461 -28.11039,2.98405 -40.9792,2.21854c-12.86881,-0.76551 -25.71247,-3.82204 -36.23365,-6.81159c-10.52118,-2.98956 -20.93191,-6.5225 -26.89343,-11.12574c-5.96151,-4.60324 -9.02661,-11.36834 -8.87564,-16.4937c0.15096,-5.12536 2.99161,-10.46136 9.78144,-14.25845c6.78983,-3.79709 19.53021,-5.91354 30.95755,-8.52408c11.42734,-2.61054 26.10163,-6.59565 37.60649,-7.13914c11.50487,-0.5435 26.53501,3.26826 31.4227,3.87817c4.88768,0.60992 -1.68608,-0.35571 -2.0966,-0.2187" fill="none" id="svg_36" stroke="#00ff7f"/>
  </g>
  <g id="svg_37" transform="matrix(1 0 0 1 0 0)">
   <g id="svg_38" transform="translate(721.4230651855469 416.4934387207031) rotate(0 15.58116662022212 42.16947280314281)">
    <path d="m-0.73606,-0.65488c5.28329,14.04074 27.48144,70.23204 32.63445,84.6805m-30.82002,-82.40991c5.2124,14.16937 25.82175,69.61748 30.49908,83.37811" fill="none" id="svg_39" stroke="#7fff00"/>
   </g>
   <g id="svg_40" transform="translate(721.4230651855469 416.4934387207031) rotate(0 15.58116662022212 42.16947280314281)">
    <path d="m11.32007,63.90503c5.30941,4.56294 14.72693,12.6429 18.26812,21.55569m-16.66046,-24.45152c6.28844,10.81146 13.5879,18.48893 18.97799,24.04918" fill="none" id="svg_41" stroke="#7fff00"/>
   </g>
   <g id="svg_42" transform="translate(721.4230651855469 416.4934387207031) rotate(0 15.58116662022212 42.16947280314281)">
    <path d="m30.63932,56.98502c-0.81883,6.63501 2.48306,16.90554 -1.05113,28.4757m2.65879,-31.37154c-1.16964,13.52112 -1.37286,23.886 -0.34126,30.9692" fill="none" id="svg_43" stroke="#7fff00"/>
   </g>
  </g>
  <g id="svg_44" transform="matrix(1 0 0 1 0 0)">
   <path d="m782.522145,500.313927c9.73419,0.81312 20.30248,3.17749 27.21741,6.50524c6.91494,3.32775 12.58019,8.91229 14.2722,13.46128c1.692,4.54898 0.53234,9.93789 -4.12018,13.83262c-4.65252,3.89472 -14.44868,7.57766 -23.79495,9.53572c-9.34628,1.95807 -21.75246,2.71161 -32.2827,2.21267c-10.53025,-0.49894 -22.7666,-2.44479 -30.89876,-5.2063c-8.13217,-2.76152 -14.86657,-7.22629 -17.89425,-11.36278c-3.02768,-4.1365 -3.17155,-9.21083 -0.27184,-13.45618c2.89971,-4.24535 9.63122,-9.14767 17.6701,-12.01594c8.03887,-2.86826 20.52209,-4.75396 30.56317,-5.19365c10.04108,-0.43969 23.34153,1.73225 29.6833,2.55552c6.34178,0.82327 8.97727,2.23258 8.36733,2.38411m-28.75225,-5.91108c10.2692,0.31832 23.13834,4.47454 31.72157,7.47678c8.58323,3.00224 16.50308,6.32301 19.77783,10.53663c3.27476,4.21363 3.17381,10.46489 -0.12928,14.74513c-3.30309,4.28025 -11.33192,8.27442 -19.68926,10.93634c-8.35734,2.66192 -20.03296,4.73311 -30.4548,5.03517c-10.42184,0.30207 -22.60015,-1.1764 -32.07625,-3.22277c-9.4761,-2.04636 -20.05295,-4.94298 -24.78035,-9.05541c-4.72739,-4.11244 -5.12515,-11.20348 -3.58402,-15.61921c1.54113,-4.41574 5.82678,-7.88971 12.83082,-10.8752c7.00404,-2.98549 21.68237,-5.39979 29.19343,-7.03773c7.51105,-1.63794 13.03102,-2.50482 15.87288,-2.78992c2.84185,-0.28509 1.12539,0.44903 1.17824,1.07936" fill="none" id="svg_45" stroke="#00ff7f"/>
  </g>
  <g id="svg_46" transform="matrix(1 0 0 1 0 0)">
   <text fill="#ff0000" font-family="Virgil, Segoe UI Emoji" font-size="20px" id="svg_47" text-anchor="start" x="738.390503" y="525.606049">Forms</text>
  </g>
  <g id="svg_48" transform="matrix(1 0 0 1 0 0)">
   <g id="svg_49" transform="translate(623.9781116221825 434.65287671826866) rotate(0 4.992032599771335 76.92533609053515)">
    <path d="m-0.70428,-0.33082c1.6477,26.09954 9.54926,129.85107 11.39263,155.73159m-9.56152,-156.95087c1.47798,25.85922 7.52444,128.86734 8.9644,155.19204" fill="none" id="svg_50" stroke="#7fff00"/>
   </g>
   <g id="svg_51" transform="translate(623.9781116221825 434.65287671826866) rotate(0 4.992032599771335 76.92533609053515)">
    <path d="m-2.3071,127.19427c5.77731,9.62638 9.37587,19.94689 11.07913,27.16727m-9.85137,-27.97239c3.42203,6.97436 4.92704,15.29842 11.41319,26.72778" fill="none" id="svg_52" stroke="#7fff00"/>
   </g>
   <g id="svg_53" transform="translate(623.9781116221825 434.65287671826866) rotate(0 4.992032599771335 76.92533609053515)">
    <path d="m18.18091,126.02741c-1.75026,9.93419 -5.66763,20.68276 -9.40888,28.33413m10.63663,-29.13925c-2.23521,7.13183 -6.38091,15.77772 -9.07481,27.89464" fill="none" id="svg_54" stroke="#7fff00"/>
   </g>
  </g>
  <g id="svg_55" transform="matrix(1 0 0 1 0 0)">
   <path d="m615.771279,591.079166c11.40301,-1.92416 26.58048,-1.59148 39.58093,-0.78411c13.00044,0.80736 27.67357,2.93174 38.42172,5.62829c10.74815,2.69655 20.50773,6.54309 26.06718,10.551c5.55946,4.0079 8.32368,8.98393 7.28955,13.49642c-1.03413,4.5125 -6.35447,9.69988 -13.49433,13.57856c-7.13986,3.87868 -17.78147,7.3293 -29.34483,9.69352c-11.56336,2.36421 -26.84674,4.38506 -40.03533,4.49176c-13.18859,0.10671 -27.51188,-1.54109 -39.09621,-3.85152c-11.58433,-2.31043 -23.30666,-6.01947 -30.40978,-10.01104c-7.10313,-3.99157 -11.42746,-9.40927 -12.20896,-13.93837c-0.7815,-4.52909 1.91949,-9.13232 7.51995,-13.2362c5.60045,-4.10388 17.9363,-8.71069 26.08277,-11.38707c8.14648,-2.67638 18.06341,-4.02365 22.79607,-4.67121c4.73266,-0.64755 5.00109,0.11188 5.59989,0.78589m46.21885,-0.98985c12.15011,1.0653 24.92205,5.41191 34.0453,8.77062c9.12324,3.35871 17.61788,7.08457 20.69416,11.38162c3.07629,4.29706 1.40271,9.86188 -2.23643,14.40071c-3.63914,4.53884 -10.35148,9.25461 -19.59841,12.83233c-9.24692,3.57771 -23.16675,7.42788 -35.88315,8.63397c-12.7164,1.20609 -27.80606,-0.34395 -40.41522,-1.39743c-12.60917,-1.05347 -25.45231,-2.35746 -35.23978,-4.92341c-9.78746,-2.56596 -18.55254,-6.2507 -23.48501,-10.47233c-4.93248,-4.22162 -7.74167,-10.29759 -6.10986,-14.85742c1.63181,-4.55983 7.63494,-8.65329 15.90073,-12.50156c8.26578,-3.84827 21.78241,-8.48992 33.69399,-10.58807c11.91158,-2.09815 27.82113,-1.98008 37.77548,-2.00082c9.95435,-0.02074 18.63256,1.40346 21.95062,1.87639c3.31805,0.47292 -1.31568,0.44818 -2.04229,0.96115" fill="none" id="svg_56" stroke="#00ff7f"/>
  </g>
  <g id="svg_59" transform="matrix(1 0 0 1 0 0)">
   <g id="svg_60" transform="translate(632.1437638172138 294.88197079577077) rotate(0 -7.73523083082415 -38.277913469712075)">
    <path d="m-0.98652,0.49586c-2.72661,-12.95075 -11.78909,-64.79554 -14.44325,-77.54755m16.12619,76.76227c-2.93085,-12.8396 -14.31655,-62.48439 -16.8633,-75.44143" fill="none" id="svg_61" stroke="#7fff00"/>
   </g>
   <g id="svg_62" transform="translate(632.1437638172138 294.88197079577077) rotate(0 -7.73523083082415 -38.277913469712075)">
    <path d="m0.61824,-49.65807c-7.67649,-12.19014 -11.97492,-20.75708 -15.2927,-25.61877m14.39941,25.78657c-4.98607,-7.41634 -9.35967,-14.11085 -14.90555,-25.30597" fill="none" id="svg_63" stroke="#7fff00"/>
   </g>
   <g id="svg_64" transform="translate(632.1437638172138 294.88197079577077) rotate(0 -7.73523083082415 -38.277913469712075)">
    <path d="m-19.44422,-45.34323c-0.12652,-13.65403 3.14848,-23.84979 4.76976,-29.93361m-5.66305,30.10141c0.29474,-8.58343 1.22195,-16.41799 5.15691,-29.62081" fill="none" id="svg_65" stroke="#7fff00"/>
   </g>
  </g>
  <g id="svg_66" transform="matrix(1 0 0 1 0 0)">
   <path d="m652.250937,192.665217c10.23972,0.62129 22.25344,2.841 29.21698,5.11137c6.96354,2.27036 11.98811,5.81443 12.56424,8.51081c0.57613,2.69638 -3.51744,5.21091 -9.10748,7.66746c-5.59003,2.45655 -14.67872,5.82941 -24.43272,7.07182c-9.75399,1.2424 -23.24374,0.97133 -34.09126,0.3826c-10.84751,-0.58873 -22.93565,-2.07594 -30.99383,-3.91498c-8.05817,-1.83905 -15.08301,-4.43671 -17.35521,-7.1193c-2.2722,-2.68258 -0.56615,-6.11948 3.72202,-8.97622c4.28816,-2.85673 12.90158,-6.39853 22.00699,-8.16418c9.10541,-1.76564 23.19209,-2.36723 32.62548,-2.42968c9.4334,-0.06244 19.2213,1.52098 23.9749,2.05503c4.75359,0.53406 5.07658,1.08152 4.54667,1.1493m-41.35646,-3.69412c10.05036,-0.37132 24.51454,1.87684 34.59279,3.20571c10.07825,1.32888 20.09319,2.65842 25.87672,4.76753c5.78353,2.10912 9.21334,4.86257 8.82444,7.88717c-0.3889,3.0246 -4.72925,7.53649 -11.15783,10.26042c-6.42858,2.72392 -17.08266,5.39713 -27.41367,6.08311c-10.331,0.68598 -24.21023,-1.11812 -34.57236,-1.96721c-10.36214,-0.84909 -20.55897,-1.07563 -27.60045,-3.12735c-7.04147,-2.05171 -13.47444,-5.96597 -14.64841,-9.18295c-1.17398,-3.21697 2.52413,-7.67291 7.60457,-10.11889c5.08044,-2.44598 16.67811,-3.36033 22.87807,-4.55698c6.19996,-1.19666 11.95762,-2.15699 14.3217,-2.62295c2.36409,-0.46596 -0.48847,-0.44223 -0.1372,-0.17281" fill="none" id="svg_67" stroke="#00ff7f"/>
  </g>
  <g id="svg_70" transform="matrix(1 0 0 1 0 0)">
   <g id="svg_71" transform="translate(569.9284536208686 305.15831244232197) rotate(0 -10.205601237602423 -72.9376184039996)">
    <path d="m-0.75106,-0.00744c-3.35714,-24.34567 -16.68592,-121.53795 -20.10374,-145.86035m21.9103,144.81083c-3.39684,-24.20585 -18.69642,-119.57158 -22.5222,-143.55247" fill="none" id="svg_72" stroke="#7fff00"/>
   </g>
   <g id="svg_73" transform="translate(569.9284536208686 305.15831244232197) rotate(0 -10.205601237602423 -72.9376184039996)">
    <path d="m-6.90131,-117.32231c-4.42698,-7.07353 -8.05883,-15.67545 -12.98924,-28.85246m12.52143,27.24579c-3.89569,-6.73923 -8.30779,-13.33203 -13.77876,-26.03542" fill="none" id="svg_74" stroke="#7fff00"/>
   </g>
   <g id="svg_75" transform="translate(569.9284536208686 305.15831244232197) rotate(0 -10.205601237602423 -72.9376184039996)">
    <path d="m-27.16575,-114.0862c0.44448,-7.72553 1.68964,-17.10628 7.2752,-32.08857m-7.74301,30.4819c1.56135,-7.75582 2.61644,-15.2217 6.48568,-29.27153" fill="none" id="svg_76" stroke="#7fff00"/>
   </g>
  </g>
  <g id="svg_77" transform="matrix(1 0 0 1 0 0)">
   <path d="m576.568279,116.184242c13.06793,-0.40751 30.50574,0.96045 43.54264,2.40291c13.0369,1.44247 25.94585,3.63848 34.67878,6.25188c8.73293,2.61339 15.21825,6.16118 17.7188,9.4285c2.50055,3.26732 1.56261,7.11408 -2.71551,10.17542c-4.27812,3.06133 -12.89074,6.04607 -22.9532,8.19259c-10.06246,2.14651 -23.89204,3.85792 -37.42158,4.6865c-13.52954,0.82858 -30.1951,0.76452 -43.75566,0.28498c-13.56056,-0.47953 -26.84543,-1.16018 -37.60771,-3.16219c-10.76227,-2.002 -21.82047,-5.82684 -26.96594,-8.84984c-5.14547,-3.02299 -5.61573,-5.98783 -3.90689,-9.28812c1.70884,-3.3003 6.20382,-7.72955 14.15993,-10.51366c7.95611,-2.78412 20.15972,-4.57235 33.57675,-6.19104c13.41703,-1.61869 36.92296,-3.08191 46.92544,-3.5211c10.00248,-0.43919 13.42612,0.28963 13.08943,0.88596m-31.74347,0.28183c13.07016,-0.93598 31.15442,-1.47233 44.27331,-0.23366c13.11888,1.23867 25.28525,4.77889 34.44,7.66569c9.15475,2.8868 17.32153,6.75001 20.4885,9.65511c3.16698,2.9051 2.24458,4.70121 -1.48666,7.7755c-3.73124,3.07429 -11.11466,8.28408 -20.90079,10.67023c-9.78613,2.38615 -24.33573,2.6051 -37.81599,3.64667c-13.48027,1.04156 -29.20457,2.69618 -43.0656,2.60274c-13.86104,-0.09345 -29.35745,-1.1001 -40.10061,-3.16342c-10.74317,-2.06332 -19.12091,-5.80424 -24.35838,-9.21648c-5.23747,-3.41225 -7.9674,-7.99077 -7.06646,-11.25699c0.90093,-3.26623 5.40287,-5.45199 12.47206,-8.34033c7.06919,-2.88834 19.18282,-7.32127 29.94307,-8.98972c10.76026,-1.66844 28.95702,-1.02342 34.61847,-1.02094c5.66145,0.00247 -0.5054,0.74623 -0.64977,1.03581" fill="none" id="svg_78" stroke="#00ff7f"/>
  </g>
  <g id="svg_81" transform="matrix(1 0 0 1 0 0)">
   <g id="svg_82" transform="translate(536.8419500256223 319.5221349413356) rotate(0 -35.464119120390194 -35.864788596008395)">
    <path d="m-0.24861,-0.73723c-12.07244,-11.99323 -59.87588,-58.65588 -71.72977,-70.62187m73.80011,72.84922c-12.24097,-12.40773 -62.3276,-62.53312 -74.5717,-74.70982" fill="none" id="svg_83" stroke="#7fff00"/>
   </g>
   <g id="svg_84" transform="translate(536.8419500256223 319.5221349413356) rotate(0 -35.464119120390194 -35.864788596008395)">
    <path d="m-46.77908,-60.00323c-7.19693,-3.32375 -18.34769,-10.29709 -26.31024,-13.98805m28.20142,13.14805c-8.22189,-2.06687 -13.68093,-5.92774 -27.07133,-12.6891" fill="none" id="svg_85" stroke="#7fff00"/>
   </g>
   <g id="svg_86" transform="translate(536.8419500256223 319.5221349413356) rotate(0 -35.464119120390194 -35.864788596008395)">
    <path d="m-61.27788,-45.48067c-2.3687,-8.20262 -8.61858,-20.08488 -11.81144,-28.51061m13.70262,27.67061c-4.6773,-5.5509 -6.59143,-12.96249 -12.57253,-27.21166" fill="none" id="svg_87" stroke="#7fff00"/>
   </g>
  </g>
  <g id="svg_88" transform="matrix(1 0 0 1 0 0)">
   <path d="m487.278879,204.766189c11.81635,0.4779 24.1233,1.66062 32.51988,3.82553c8.39658,2.16492 15.27313,6.08957 17.85959,9.16397c2.58646,3.07439 1.74354,6.50843 -2.34083,9.2824c-4.08437,2.77397 -12.31227,5.5818 -22.16539,7.36142c-9.85313,1.77962 -24.33431,2.8163 -36.95336,3.31632c-12.61906,0.50002 -26.73856,0.51041 -38.76097,-0.31622c-12.02242,-0.82662 -25.04585,-2.40926 -33.37354,-4.64353c-8.32769,-2.23428 -14.20713,-5.62032 -16.5926,-8.76211c-2.38546,-3.14178 -2.03675,-7.30934 2.27982,-10.08861c4.31656,-2.77926 13.51608,-4.68419 23.61959,-6.58699c10.10351,-1.9028 23.38048,-4.47785 37.00146,-4.82979c13.62097,-0.35194 35.94153,2.08561 44.72437,2.71813c8.78285,0.63253 8.22724,0.82443 7.97271,1.07702m-37.20827,-2.93623c12.28887,-0.05626 26.22859,0.62298 37.10013,1.92139c10.87155,1.29842 22.11583,3.38319 28.12917,5.86908c6.01333,2.48588 8.58424,6.15905 7.95085,9.04623c-0.63339,2.88717 -4.70042,5.48926 -11.75117,8.27681c-7.05075,2.78755 -18.82193,6.79086 -30.55333,8.44848c-11.7314,1.65762 -27.18286,1.87812 -39.83508,1.49723c-12.65223,-0.38088 -25.47033,-2.14363 -36.07828,-3.78253c-10.60795,-1.63889 -21.7555,-3.58022 -27.56942,-6.05084c-5.81393,-2.47062 -8.06397,-5.89204 -7.31413,-8.77289c0.74984,-2.88085 4.60217,-5.91237 11.81315,-8.51222c7.21098,-2.59985 20.25481,-5.47393 31.45275,-7.08686c11.19794,-1.61294 29.84974,-2.54505 35.7349,-2.59077c5.88516,-0.04571 -0.63687,1.55308 -0.42394,2.31649" fill="none" id="svg_89" stroke="#00ff7f"/>
  </g>
  <g id="svg_92" transform="matrix(1 0 0 1 0 0)">
   <g id="svg_93" transform="translate(497.82753654992825 352.37898109841893) rotate(0 -28.966259896418592 -10.564754341174478)">
    <path d="m-0.87936,0.97665c-9.84398,-3.58583 -47.71256,-19.47013 -57.2241,-23.0828m58.96329,22.54993c-10.04283,-3.4314 -49.77989,-18.33964 -59.65218,-21.6225" fill="none" id="svg_94" stroke="#7fff00"/>
   </g>
   <g id="svg_95" transform="translate(497.82753654992825 352.37898109841893) rotate(0 -28.966259896418592 -10.564754341174478)">
    <path d="m-27.16525,-20.55297c-14.96585,0.11303 -24.02191,0.59709 -30.88339,-0.9525m29.41111,0.67183c-8.02034,-1.17212 -15.94934,-1.0522 -30.57867,-0.25721" fill="none" id="svg_96" stroke="#7fff00"/>
   </g>
   <g id="svg_97" transform="translate(497.82753654992825 352.37898109841893) rotate(0 -28.966259896418592 -10.564754341174478)">
    <path d="m-34.05714,-1.22368c-12.25149,-7.18218 -18.68843,-14.04384 -23.9915,-20.28179m22.51922,20.00113c-6.06492,-6.28416 -12.1767,-11.26088 -23.68678,-19.58651" fill="none" id="svg_98" stroke="#7fff00"/>
   </g>
  </g>
  <g id="svg_99" transform="matrix(1 0 0 1 0 0)">
   <path d="m428.094162,289.977604c14.42805,0.17316 30.82439,1.0511 43.17929,2.68456c12.3549,1.63346 24.13083,4.62638 30.95013,7.11618c6.81929,2.48979 9.65615,5.12123 9.96566,7.8226c0.3095,2.70137 -1.91853,5.70591 -8.10864,8.38561c-6.1901,2.6797 -17.0408,5.75368 -29.032,7.69259c-11.99119,1.93891 -28.25254,3.19003 -42.91516,3.94087c-14.66263,0.75084 -30.79379,1.12072 -45.06058,0.56418c-14.2668,-0.55655 -29.05183,-1.9199 -40.54019,-3.90344c-11.48837,-1.98354 -22.42822,-5.08264 -28.39001,-7.99779c-5.96179,-2.91516 -8.24856,-6.65529 -7.38074,-9.49315c0.86783,-2.83786 4.93296,-5.16125 12.58767,-7.53403c7.65471,-2.37278 20.55815,-5.08423 33.3406,-6.70264c12.78245,-1.61841 30.4109,-2.77927 43.35408,-3.00781c12.94318,-0.22855 27.54853,1.29327 34.30502,1.63654c6.75648,0.34326 6.58895,0.07852 6.23388,0.42304m-24.8323,-0.66682c13.95376,-0.17294 30.69117,-0.77814 43.97756,0.55042c13.28638,1.32856 27.25854,5.12714 35.74075,7.42095c8.48221,2.29381 13.27254,3.57763 15.15249,6.3419c1.87996,2.76426 0.6517,7.61896 -3.87275,10.24369c-4.52445,2.62474 -13.10144,3.59125 -23.27392,5.50472c-10.17247,1.91347 -23.51823,4.65887 -37.76094,5.97612c-14.2427,1.31725 -32.78787,2.2855 -47.69528,1.92737c-14.90742,-0.35814 -29.25671,-2.34051 -41.7492,-4.07615c-12.49249,-1.73565 -25.69864,-3.91445 -33.20573,-6.33771c-7.50709,-2.42326 -11.29986,-5.13511 -11.83679,-8.20184c-0.53693,-3.06674 2.63871,-7.3106 8.61521,-10.19857c5.97651,-2.88796 15.71915,-5.42835 27.24381,-7.12924c11.52467,-1.70089 30.53944,-2.60074 41.90417,-3.0761c11.36474,-0.47536 21.63021,0.30094 26.28423,0.22392c4.65402,-0.07702 1.80579,-0.9815 1.63991,-0.68605" fill="none" id="svg_100" stroke="#00ff7f"/>
  </g>
  <g id="svg_103" transform="matrix(1 0 0 1 0 0)">
   <g id="svg_104" transform="translate(507.93456621920427 396.3578730540351) rotate(0 -40.79829195860452 35.29262103881763)">
    <path d="m-0.44186,-0.31699c-13.92208,11.80702 -68.16276,59.15112 -82.12158,71.36569m84.09046,-72.57772c-14.10024,11.91467 -70.76794,61.52761 -84.65063,73.64328" fill="none" id="svg_105" stroke="#7fff00"/>
   </g>
   <g id="svg_106" transform="translate(507.93456621920427 396.3578730540351) rotate(0 -40.79829195860452 35.29262103881763)">
    <path d="m-69.17503,47.06978c-6.43655,7.23237 -8.74573,18.26678 -14.47734,25.11708m14.24283,-27.09889c-3.10635,9.79178 -7.76426,16.96586 -14.24146,27.29578" fill="none" id="svg_107" stroke="#7fff00"/>
   </g>
   <g id="svg_108" transform="translate(507.93456621920427 396.3578730540351) rotate(0 -40.79829195860452 35.29262103881763)">
    <path d="m-55.6722,62.52273c-11.6044,1.2989 -19.05482,6.44955 -27.98017,9.66413m27.74566,-11.64594c-7.5336,4.79152 -16.53788,6.99152 -27.74429,11.84283" fill="none" id="svg_109" stroke="#7fff00"/>
   </g>
  </g>
  <g id="svg_110" transform="matrix(1 0 0 1 0 0)">
   <path d="m368.228793,452.868179c9.51154,-0.47246 21.65207,2.03888 30.24403,4.57224c8.59195,2.53336 17.41305,6.37657 21.30769,10.62791c3.89463,4.25134 4.55777,10.22432 2.0601,14.88014c-2.49767,4.65583 -9.48259,10.07416 -17.04614,13.05481c-7.56355,2.98066 -18.04913,4.43043 -28.33516,4.82913c-10.28602,0.3987 -24.36936,-0.27146 -33.38099,-2.43691c-9.01162,-2.16546 -16.24479,-6.52238 -20.68874,-10.55584c-4.44395,-4.03346 -7.4882,-9.18318 -5.97495,-13.6449c1.51325,-4.46172 8.04772,-9.56665 15.05445,-13.12542c7.00674,-3.55878 19.21091,-6.92577 26.98596,-8.22723c7.77505,-1.30147 14.9925,-0.03813 19.66435,0.41846c4.67184,0.45659 8.53698,1.95868 8.36671,2.32107m-0.29753,-0.2894c9.49228,1.2655 19.33389,4.16527 25.51693,7.63894c6.18304,3.47366 11.24279,8.67771 11.58133,13.20307c0.33853,4.52535 -4.268,10.27795 -9.5501,13.94907c-5.28211,3.67112 -13.04695,6.2267 -22.14255,8.07765c-9.0956,1.85095 -22.22971,4.04452 -32.43105,3.02805c-10.20134,-1.01647 -21.87107,-5.81739 -28.77698,-9.12687c-6.90591,-3.30949 -11.35935,-6.66604 -12.65848,-10.73006c-1.29912,-4.06402 0.21783,-9.36572 4.86372,-13.65406c4.6459,-4.28834 14.20783,-9.45783 23.01166,-12.076c8.80383,-2.61817 23.00782,-3.51392 29.81132,-3.63302c6.80349,-0.1191 9.60272,2.49956 11.00967,2.91843c1.40696,0.41888 -2.04674,-0.84329 -2.56793,-0.40516" fill="none" id="svg_111" stroke="#00ff7f"/>
  </g>
  <g id="svg_114" transform="matrix(1 0 0 1 0 0)">
   <g id="svg_115" transform="translate(535.004676661257 412.9961838730723) rotate(0 -65.84516884330117 98.6069109923709)">
    <path d="m-0.09839,0.27995c-22.04637,32.77047 -109.84619,163.4738 -131.49356,195.96296m129.98277,-196.86159c-21.72607,33.01678 -106.24659,165.67393 -127.70059,198.45118" fill="none" id="svg_116" stroke="#7fff00"/>
   </g>
   <g id="svg_117" transform="translate(535.004676661257 412.9961838730723) rotate(0 -65.84516884330117 98.6069109923709)">
    <path d="m-122.18886,167.21543c-2.77045,13.12552 -6.86066,22.3558 -8.68489,32.13041m8.81967,-30.21273c-1.5472,6.8834 -4.42158,11.97521 -7.69313,29.13356" fill="none" id="svg_118" stroke="#7fff00"/>
   </g>
   <g id="svg_119" transform="translate(535.004676661257 412.9961838730723) rotate(0 -65.84516884330117 98.6069109923709)">
    <path d="m-104.94241,178.33658c-8.89549,9.13903 -19.14593,14.39696 -25.93134,21.00926m26.06612,-19.09158c-5.41978,4.42128 -12.15093,7.0261 -24.93958,18.01241" fill="none" id="svg_120" stroke="#7fff00"/>
   </g>
  </g>
  <g id="svg_121" transform="matrix(1 0 0 1 0 0)">
   <path d="m371.177741,609.826956c13.35661,-1.00449 30.27958,-0.25382 45.28301,0.458c15.00343,0.71182 32.45073,1.82531 44.73755,3.81291c12.28682,1.9876 22.22362,5.03735 28.98336,8.11269c6.75973,3.07535 10.94051,6.97228 11.57505,10.33938c0.63454,3.3671 -1.48758,6.7975 -7.76784,9.86325c-6.28026,3.06574 -18.06692,6.33066 -29.91371,8.53121c-11.84679,2.20055 -26.63228,3.72381 -41.16702,4.67209c-14.53473,0.94827 -31.06741,1.75547 -46.04137,1.01756c-14.97397,-0.73792 -31.72347,-3.26105 -43.80244,-5.44506c-12.07898,-2.18401 -21.95144,-4.60158 -28.67143,-7.65901c-6.71999,-3.05743 -11.37517,-7.26209 -11.64854,-10.68557c-0.27336,-3.42347 3.41612,-6.73729 10.00835,-9.85528c6.59223,-3.11798 16.4208,-6.71624 29.54502,-8.85263c13.12422,-2.13638 39.28782,-3.20131 49.20029,-3.96566c9.91246,-0.76435 10.28186,-1.02202 10.27449,-0.62043m-28.18151,0.31311c13.4514,-1.40485 31.98675,0.11399 47.21376,0.43749c15.22702,0.3235 31.21753,-0.39898 44.14834,1.50352c12.93082,1.9025 25.75491,6.90554 33.43655,9.91147c7.68163,3.00592 11.24485,5.05092 12.65326,8.12407c1.40841,3.07314 0.90285,7.18425 -4.20279,10.31478c-5.10564,3.13054 -15.44699,6.15694 -26.43106,8.46844c-10.98407,2.31149 -24.94271,4.05188 -39.47335,5.40054c-14.53064,1.34867 -32.75012,3.15149 -47.71047,2.69146c-14.96035,-0.46003 -29.51003,-3.64689 -42.05162,-5.45164c-12.54159,-1.80476 -25.07704,-2.45113 -33.19792,-5.3769c-8.12088,-2.92577 -14.00212,-8.50604 -15.52734,-12.17772c-1.52522,-3.67167 0.73775,-6.81014 6.37602,-9.85232c5.63826,-3.04218 16.94376,-6.24828 27.45359,-8.40075c10.50983,-2.15247 29.10476,-3.76685 35.60538,-4.51408c6.50062,-0.74723 2.58244,-0.43398 3.39835,0.03071" fill="none" id="svg_122" stroke="#00ff7f"/>
  </g>
  <g id="svg_125" transform="matrix(1 0 0 1 0 0)">
   <g id="svg_126" transform="translate(714.0650550283784 309.68757883110527) rotate(0 47.967228854224345 -79.87592551717844)">
    <path d="m-0.50752,0.78984c15.9507,-26.89409 80.63254,-134.59942 96.9495,-161.33153m-95.01508,160.70059c15.72139,-26.78423 78.08314,-132.3405 94.02667,-159.29824" fill="none" id="svg_127" stroke="#7fff00"/>
   </g>
   <g id="svg_128" transform="translate(714.0650550283784 309.68757883110527) rotate(0 47.967228854224345 -79.87592551717844)">
    <path d="m91.26019,-129.77776c0.04429,-9.04966 3.60072,-20.36084 5.9502,-29.85927m-7.28123,29.60486c2.05428,-8.16507 3.40572,-16.60834 5.14598,-28.6286" fill="none" id="svg_129" stroke="#7fff00"/>
   </g>
   <g id="svg_130" transform="translate(714.0650550283784 309.68757883110527) rotate(0 47.967228854224345 -79.87592551717844)">
    <path d="m73.59362,-140.21865c6.50205,-5.20074 16.44466,-12.73771 23.61677,-19.41838m-24.9478,19.16396c7.48781,-5.15028 14.18442,-10.43457 22.81255,-18.1877" fill="none" id="svg_131" stroke="#7fff00"/>
   </g>
  </g>
  <g id="svg_132" transform="matrix(1 0 0 1 0 0)">
   <path d="m835.097569,106.727815c8.27303,1.75511 16.78523,5.15592 20.61177,8.98813c3.82654,3.83222 4.22083,9.74549 2.34747,14.00518c-1.87337,4.25969 -6.46653,8.69454 -13.58765,11.55297c-7.12112,2.85842 -19.504,5.16295 -29.13906,5.59759c-9.63506,0.43463 -20.72461,-0.57084 -28.67128,-2.98979c-7.94668,-2.41895 -15.5643,-7.4451 -19.00875,-11.52391c-3.44446,-4.0788 -4.52802,-8.94843 -1.65798,-12.94892c2.87005,-4.00048 11.06242,-8.383 18.87826,-11.05398c7.81583,-2.67098 19.36314,-4.79274 28.01674,-4.97191c8.65361,-0.17917 19.38588,3.05074 23.90486,3.89688c4.51899,0.84614 3.51775,1.12688 3.20906,1.17998m-44.01085,-3.37947c8.22925,-2.08745 21.3009,-3.1729 30.50252,-2.02395c9.20162,1.14895 18.9426,5.23671 24.7072,8.91765c5.76459,3.68094 9.93265,8.67737 9.88038,13.16798c-0.05228,4.49061 -4.18354,10.30273 -10.19404,13.77568c-6.0105,3.47296 -16.4342,5.78652 -25.86894,7.06203c-9.43474,1.27552 -21.60197,1.94663 -30.73949,0.59106c-9.13752,-1.35556 -19.12644,-4.76675 -24.08563,-8.72445c-4.9592,-3.95771 -6.96345,-10.2133 -5.66953,-15.02178c1.29393,-4.80849 8.24857,-10.71738 13.43308,-13.82912c5.18451,-3.11174 14.79448,-4.32302 17.67397,-4.84134c2.87949,-0.51832 -0.85089,1.15056 -0.39705,1.73143" fill="none" id="svg_133" stroke="#00ff7f"/>
  </g>
  <g id="svg_136" transform="matrix(1 0 0 1 0 0)">
   <g id="svg_137" transform="translate(497.7079372507011 373.57774370595473) rotate(0 -147.54374474120928 12.596520974009593)">
    <path d="m0.7719,0.49461c-49.0328,4.05411 -246.64159,19.49515 -295.81572,23.41606m294.76183,-24.20199c-49.09464,4.30075 -246.54084,21.48859 -295.5774,25.77568" fill="none" id="svg_138" stroke="#00ff00"/>
   </g>
   <g id="svg_139" transform="translate(497.7079372507011 373.57774370595473) rotate(0 -147.54374474120928 12.596520974009593)">
    <path d="m-267.84241,13.23363c-6.99143,4.36686 -13.0476,4.29574 -29.96413,13.31898m29.52301,-14.51769c-11.48882,4.67474 -21.82395,10.388 -27.87027,14.2753" fill="none" id="svg_140" stroke="#00ff00"/>
   </g>
   <g id="svg_141" transform="translate(497.7079372507011 373.57774370595473) rotate(0 -147.54374474120928 12.596520974009593)">
    <path d="m-266.05934,33.67723c-7.32997,-0.31182 -13.79521,-5.07308 -31.7472,-7.12462m31.30608,5.92591c-11.99752,-2.99512 -23.00168,-4.95253 -29.65334,-6.1683" fill="none" id="svg_142" stroke="#00ff00"/>
   </g>
  </g>
  <g id="svg_143" transform="matrix(1 0 0 1 0 0)">
   <path d="m168.26099,377.235225c9.86846,1.39058 19.38027,5.53206 25.04418,8.89124c5.66391,3.35918 9.55548,7.33876 8.93928,11.26385c-0.6162,3.9251 -5.86222,8.92835 -12.63646,12.28671c-6.77423,3.35837 -17.54702,6.53373 -28.00896,7.86349c-10.46195,1.32975 -24.04287,1.2775 -34.76273,0.11502c-10.71986,-1.16248 -22.14911,-4.09566 -29.55643,-7.08991c-7.40732,-2.99425 -13.31476,-7.04242 -14.88748,-10.87558c-1.57271,-3.83315 0.86938,-8.76893 5.45119,-12.12336c4.58182,-3.35444 12.68875,-5.98702 22.03968,-8.00325c9.35094,-2.01622 22.29739,-4.21171 34.06595,-4.09412c11.76856,0.1176 29.18091,3.10216 36.54541,4.79969c7.3645,1.69753 8.50018,4.96629 7.64158,5.38549m-38.85074,-9.41285c10.66933,-0.05898 22.52842,1.39851 31.04838,4.06033c8.51997,2.66181 16.81133,8.25337 20.0714,11.91056c3.26006,3.65719 3.14661,6.24481 -0.51099,10.03258c-3.6576,3.78778 -12.51123,10.14239 -21.43462,12.69405c-8.92338,2.55166 -20.9627,2.72496 -32.10571,2.61591c-11.143,-0.10905 -24.82211,-1.31868 -34.7523,-3.27022c-9.93018,-1.95154 -19.65681,-5.27319 -24.82881,-8.43903c-5.17201,-3.16585 -7.82537,-6.93558 -6.20322,-10.55603c1.62216,-3.62046 8.59887,-8.12904 15.93615,-11.1667c7.33728,-3.03766 19.36114,-5.89016 28.08754,-7.05927c8.72641,-1.16912 20.08388,0.28368 24.27089,0.04458c4.18701,-0.23909 0.85472,-1.74391 0.85117,-1.47917" fill="none" id="svg_144" stroke="#00ff7f"/>
  </g>
  <g id="svg_147" transform="matrix(1 0 0 1 0 0)">
   <g id="svg_148" transform="translate(128.0852289959065 421.1361389160156) rotate(0 -2.8649257543285955 36.33127957611467)">
    <path d="m-0.40733,0.7695c-0.90855,11.93104 -4.91165,59.84006 -5.9403,71.76517m7.92731,-72.40678c-0.99044,11.50018 -7.3792,58.95014 -8.88921,70.63077" fill="none" id="svg_149" stroke="#5fbf00"/>
   </g>
   <g id="svg_150" transform="translate(128.0852289959065 421.1361389160156) rotate(0 -2.8649257543285955 36.33127957611467)">
    <path d="m-12.52296,41.42641c1.51272,6.23477 2.61879,12.86513 5.07187,28.16351m-5.80954,-27.96557c1.14246,7.77964 4.00651,16.88278 5.98173,29.34447" fill="none" id="svg_151" stroke="#5fbf00"/>
   </g>
   <g id="svg_152" transform="translate(128.0852289959065 421.1361389160156) rotate(0 -2.8649257543285955 36.33127957611467)">
    <path d="m7.82293,44.10305c-3.09241,5.56266 -6.57032,11.58996 -15.27402,25.48687m14.53636,-25.28893c-4.91271,7.02356 -8.12467,15.32737 -14.36417,26.66783" fill="none" id="svg_153" stroke="#5fbf00"/>
   </g>
  </g>
  <g id="svg_154" transform="matrix(1 0 0 1 0 0)">
   <path d="m85.218294,498.51195c8.75736,-2.57408 23.92916,-3.8132 35.13486,-3.71138c11.2057,0.10183 23.55239,1.19855 32.09936,4.32233c8.54697,3.12379 15.30077,9.29283 19.18247,14.42038c3.88171,5.12756 6.31847,11.50558 4.10775,16.34496c-2.21072,4.83937 -9.42914,9.20801 -17.37207,12.69131c-7.94293,3.4833 -19.68259,7.07267 -30.2855,8.20848c-10.60291,1.1358 -23.23457,0.35355 -33.33195,-1.39365c-10.09738,-1.74721 -20.66911,-5.16936 -27.25234,-9.0896c-6.58324,-3.92025 -11.15439,-9.12491 -12.24706,-14.43188c-1.09267,-5.30696 0.52293,-12.84114 5.69104,-17.40991c5.1681,-4.56877 20.62278,-7.92683 25.3176,-10.00269c4.69482,-2.07587 1.92351,-2.14331 2.85133,-2.45249c0.92781,-0.30918 2.4237,-0.09445 2.71556,0.59743m26.34831,-3.34465c10.32111,-0.4208 23.04547,2.20903 32.23304,5.38778c9.18756,3.17875 18.69148,8.64641 22.89235,13.68471c4.20088,5.03831 4.74723,11.2452 2.31288,16.54513c-2.43435,5.29993 -8.82077,11.34974 -16.91898,15.25445c-8.0982,3.90471 -20.78337,7.13702 -31.67023,8.1738c-10.88685,1.03678 -23.49499,0.06328 -33.6509,-1.95309c-10.15591,-2.01637 -20.96611,-6.0247 -27.28455,-10.14513c-6.31843,-4.12043 -9.82264,-9.49114 -10.62606,-14.57744c-0.80342,-5.0863 0.99326,-11.53498 5.80552,-15.94037c4.81226,-4.40538 13.68615,-8.13844 23.06804,-10.49192c9.3819,-2.35348 27.2014,-2.78041 33.22333,-3.62897c6.02193,-0.84857 2.7569,-1.33532 2.90826,-1.46241c0.15136,-0.12709 -1.69349,0.34746 -2.00011,0.69989" fill="none" id="svg_155" stroke="#00ff7f"/>
  </g>
  <g id="svg_158" transform="matrix(1 0 0 1 0 0)">
   <g id="svg_159" transform="translate(122.92653503809913 370.7080993652344) rotate(0 -15.241304042211794 -25.926159237619714)">
    <path d="m0.71654,-0.76692c-5.13995,-8.79142 -25.70609,-43.73328 -31.03039,-52.53025m29.94743,54.74202c-5.33351,-8.56908 -26.10167,-44.38673 -30.83273,-53.38479" fill="none" id="svg_160" stroke="#5fbf00"/>
   </g>
   <g id="svg_161" transform="translate(122.92653503809913 370.7080993652344) rotate(0 -15.241304042211794 -25.926159237619714)">
    <path d="m-9.78782,-32.11459c-7.0052,-8.13799 -15.22555,-13.81799 -21.26577,-17.89428m23.13696,18.47044c-4.39158,-4.50915 -10.69192,-9.03289 -24.0943,-20.1212" fill="none" id="svg_162" stroke="#5fbf00"/>
   </g>
   <g id="svg_163" transform="translate(122.92653503809913 370.7080993652344) rotate(0 -15.241304042211794 -25.926159237619714)">
    <path d="m-27.71161,-22.12169c-0.79698,-11.68076 -2.8548,-20.7965 -3.34198,-27.88718m5.21318,28.46333c-0.4189,-6.65913 -2.83461,-13.34864 -6.17052,-30.11409" fill="none" id="svg_164" stroke="#5fbf00"/>
   </g>
  </g>
  <g id="svg_165" transform="matrix(1 0 0 1 0 0)">
   <path d="m117.44138,277.81033c13.19547,0.22476 27.68672,3.26686 38.75284,5.26399c11.06612,1.99714 21.44505,4.27702 27.64388,6.71883c6.19884,2.44181 10.11594,4.95902 9.54914,7.93203c-0.56681,2.97301 -5.74274,7.23834 -12.94996,9.90603c-7.20722,2.66769 -18.23356,4.51372 -30.29336,6.1001c-12.05981,1.58638 -27.89427,3.00066 -42.06546,3.41818c-14.17119,0.41753 -30.07211,0.33048 -42.96167,-0.91303c-12.88955,-1.24351 -25.73454,-3.91319 -34.37567,-6.54803c-8.64113,-2.63485 -14.93903,-6.35685 -17.47113,-9.26104c-2.5321,-2.90419 -1.93053,-5.3277 2.27853,-8.16411c4.20905,-2.83641 13.07887,-6.63592 22.97579,-8.85437c9.89692,-2.21846 22.61926,-3.63833 36.40574,-4.45637c13.78648,-0.81803 37.97108,-0.49238 46.31315,-0.45183c8.34206,0.04054 3.97426,0.2244 3.73922,0.69513m-34.2889,-0.91525c12.92769,-0.4862 28.07038,1.51145 41.28367,2.47374c13.21328,0.96228 28.36566,1.33386 37.99604,3.29997c9.63038,1.96612 16.38361,5.50193 19.78625,8.49672c3.40264,2.99479 4.01536,6.58177 0.62958,9.47202c-3.38578,2.89024 -11.71334,5.70343 -20.94427,7.86945c-9.23093,2.16602 -21.36845,4.11905 -34.44129,5.12665c-13.07284,1.00761 -29.87764,1.18228 -43.99577,0.91897c-14.11813,-0.2633 -29.16631,-0.74633 -40.71301,-2.49877c-11.54671,-1.75245 -22.01225,-5.44608 -28.56723,-8.01589c-6.55498,-2.56982 -11.03719,-4.50116 -10.76266,-7.40302c0.27454,-2.90186 5.66283,-7.44576 12.40989,-10.00813c6.74705,-2.56237 17.09775,-3.86674 28.07245,-5.36612c10.97469,-1.49937 31.49238,-3.16042 37.77573,-3.63011c6.28335,-0.46969 -0.36213,0.79475 -0.07562,0.81199" fill="none" id="svg_166" stroke="#00ff7f"/>
  </g>
  <g id="svg_169" transform="matrix(1 0 0 1 0 0)">
   <g id="svg_170" transform="translate(425.07852861623735 656.7107849121094) rotate(0 39.068680157729034 23.48573233912373)">
    <path d="m0.8042,-0.37613c12.97196,7.96431 64.50884,39.52839 77.56589,47.50541m-78.60282,-48.74849c12.73147,8.21347 64.3078,41.78756 77.44264,50.20988" fill="none" id="svg_171" stroke="#5fbf00"/>
   </g>
   <g id="svg_172" transform="translate(425.07852861623735 656.7107849121094) rotate(0 39.068680157729034 23.48573233912373)">
    <path d="m47.33901,41.22483c10.43405,3.40601 21.11371,6.98484 28.63292,9.14082m-28.93997,-8.80064c10.17881,2.91849 18.32975,3.46999 30.27096,6.57147" fill="none" id="svg_173" stroke="#5fbf00"/>
   </g>
   <g id="svg_174" transform="translate(425.07852861623735 656.7107849121094) rotate(0 39.068680157729034 23.48573233912373)">
    <path d="m58.4826,23.99287c6.49675,9.42334 13.33341,18.94482 17.48933,26.37278m-17.79638,-26.0326c7.09022,7.93258 11.98573,13.51812 19.12737,23.80343" fill="none" id="svg_175" stroke="#5fbf00"/>
   </g>
  </g>
  <g id="svg_176" transform="matrix(1 0 0 1 0 0)">
   <path d="m602.776902,680.93708c12.13809,0.73456 25.44512,3.55764 34.24607,6.22021c8.80095,2.66258 15.76265,6.13568 18.55962,9.75523c2.79696,3.61954 1.91686,8.29205 -1.77782,11.96205c-3.69467,3.67 -10.98401,7.61992 -20.39025,10.05793c-9.40623,2.43802 -23.20318,3.7721 -36.04716,4.57016c-12.84398,0.79807 -28.34149,1.07806 -41.01671,0.21823c-12.67523,-0.85982 -26.08967,-2.63396 -35.03465,-5.37717c-8.94498,-2.7432 -15.56981,-7.62965 -18.63522,-11.08204c-3.06542,-3.45239 -3.17627,-6.20827 0.24274,-9.63228c3.41901,-3.42401 11.04201,-8.25104 20.27134,-10.91178c9.22932,-2.66074 22.62946,-3.98865 35.10459,-5.05266c12.47513,-1.06402 31.61241,-1.52838 39.7462,-1.33141c8.13378,0.19697 7.02855,2.11474 9.05653,2.51325c2.02798,0.39851 3.47192,-0.16702 3.11134,-0.12219m6.13143,-0.24296c11.75237,1.82891 23.21478,6.59421 30.27064,9.58721c7.05585,2.993 11.64105,4.72719 12.06449,8.37078c0.42344,3.64359 -3.23232,10.2126 -9.52383,13.49077c-6.29151,3.27817 -17.51051,4.1687 -28.22524,6.17824c-10.71472,2.00954 -23.20022,5.47054 -36.0631,5.879c-12.86288,0.40846 -29.13103,-1.84593 -41.11417,-3.42823c-11.98313,-1.5823 -23.58742,-2.79563 -30.78463,-6.06556c-7.19721,-3.26992 -11.48627,-9.71636 -12.39864,-13.55399c-0.91238,-3.83763 1.44693,-6.52998 6.9244,-9.47181c5.47747,-2.94183 15.41826,-5.92426 25.94041,-8.17919c10.52215,-2.25492 24.52799,-4.90782 37.19249,-5.35034c12.66449,-0.44252 31.08343,2.34473 38.7945,2.69523c7.71108,0.35051 6.55445,-0.78977 7.47195,-0.59222c0.9175,0.19755 -1.30999,1.4303 -1.96696,1.77754" fill="none" id="svg_177" stroke="#00ff7f"/>
  </g>
  <g id="svg_178" transform="matrix(1 0 0 1 0 0)">
   <g id="svg_179" transform="translate(947.9186526013978 494.59821741902147) rotate(0 -4.308969082634235 45.18890156922993)">
    <path d="m-0.77049,0.51069c-1.67242,14.80429 -7.52542,74.12274 -8.87331,88.80304m10.66967,-89.58053c-1.35864,14.93154 -6.77164,75.97947 -8.58178,90.9114" fill="none" id="svg_180" stroke="#5fbf00"/>
   </g>
   <g id="svg_181" transform="translate(947.9186526013978 494.59821741902147) rotate(0 -4.308969082634235 45.18890156922993)">
    <path d="m-14.04148,59.57439c1.0513,11.03084 2.28912,19.56941 5.01951,31.07301m-6.07173,-28.87116c2.72336,6.66845 4.37958,14.06129 7.86685,28.94819" fill="none" id="svg_182" stroke="#5fbf00"/>
   </g>
   <g id="svg_183" transform="translate(947.9186526013978 494.59821741902147) rotate(0 -4.308969082634235 45.18890156922993)">
    <path d="m6.37306,61.66399c-5.74623,10.20484 -11.29744,18.0485 -15.39503,28.98341m14.34281,-26.78157c-2.58055,6.13455 -6.21726,12.98562 -12.54769,26.8586" fill="none" id="svg_184" stroke="#5fbf00"/>
   </g>
  </g>
  <g id="svg_185" transform="matrix(1 0 0 1 0 0)">
   <path d="m924.561892,584.287126c8.69722,-1.82622 22.46351,-2.3739 32.26995,-1.20437c9.80643,1.16953 20.38565,4.69886 26.56865,8.22157c6.18301,3.52271 10.11692,8.58004 10.52935,12.91467c0.41244,4.33463 -2.66691,9.61817 -8.05473,13.09313c-5.38781,3.47496 -14.90747,6.17479 -24.27215,7.75663c-9.36469,1.58184 -22.12385,2.77433 -31.91595,1.7344c-9.7921,-1.03992 -20.54193,-4.5926 -26.83665,-7.97395c-6.29473,-3.38135 -10.37725,-7.87418 -10.9317,-12.31413c-0.55445,-4.43995 2.08953,-10.79031 7.605,-14.32557c5.51546,-3.53525 20.33936,-5.41281 25.48779,-6.88598c5.14842,-1.47316 3.34945,-1.75003 5.40274,-1.95303c2.0533,-0.20301 6.53022,0.29086 6.91703,0.73501m-11.13377,0.55837c9.14726,-1.08813 23.25621,-0.23152 33.0701,0.96492c9.8139,1.19645 19.74492,3.10316 25.81327,6.21376c6.06835,3.11059 10.49994,8.28842 10.59685,12.44981c0.09691,4.1614 -3.99557,8.86516 -10.01541,12.51858c-6.01983,3.65342 -16.13356,7.88235 -26.10361,9.40194c-9.97004,1.51959 -24.15441,1.01158 -33.71665,-0.2844c-9.56224,-1.29598 -17.90469,-3.84797 -23.65679,-7.49148c-5.7521,-3.64352 -10.71155,-9.82432 -10.8558,-14.36961c-0.14426,-4.54529 3.95872,-9.4001 9.99026,-12.90215c6.03154,-3.50205 22.08041,-7.00292 26.19897,-8.11017c4.11857,-1.10725 -1.71923,1.13721 -1.48757,1.46668c0.23166,0.32947 2.28677,0.35754 2.87752,0.51013" fill="none" id="svg_186" stroke="#00ff7f"/>
  </g>
  <g id="svg_191" transform="matrix(1 0 0 1 0 0)">
   <g id="svg_192" transform="translate(1033.6056823730469 505.7133483886719) rotate(0 23.258229891542328 29.079661258742078)">
    <path d="m0.13649,0.59933c8.02672,9.4626 39.95774,46.7117 47.63096,56.19239m-49.01844,-56.92334c7.97347,9.65918 40.17476,49.1563 48.49273,58.42256" fill="none" id="svg_193" stroke="#5fbf00"/>
   </g>
   <g id="svg_194" transform="translate(1033.6056823730469 505.7133483886719) rotate(0 23.258229891542328 29.079661258742078)">
    <path d="m22.17216,44.78466c5.84891,1.28562 13.96889,6.11715 24.83187,15.06167m-26.04852,-15.77946c7.53998,4.05146 16.10401,8.03998 25.94807,14.70303" fill="none" id="svg_195" stroke="#5fbf00"/>
   </g>
   <g id="svg_196" transform="translate(1033.6056823730469 505.7133483886719) rotate(0 23.258229891542328 29.079661258742078)">
    <path d="m37.81452,31.50172c1.67012,4.85341 5.60953,13.23494 9.18951,28.34461m-10.40616,-29.06241c2.76479,8.16453 6.43886,16.30543 10.30571,27.98598" fill="none" id="svg_197" stroke="#5fbf00"/>
   </g>
  </g>
  <g id="svg_198" transform="matrix(1 0 0 1 0 0)">
   <path d="m1158.054862,562.460952c14.19085,0.10407 29.37949,2.3956 41.3767,4.80147c11.99721,2.40586 23.61779,5.77218 30.60657,9.63374c6.98879,3.86155 11.18622,9.21901 11.32615,13.53559c0.13993,4.31658 -4.09406,8.89582 -10.48658,12.3639c-6.39251,3.46807 -16.10395,6.10774 -27.8685,8.44455c-11.76455,2.33681 -28.00453,4.32479 -42.71882,5.57631c-14.71429,1.25152 -31.12144,2.79689 -45.56693,1.93281c-14.44549,-0.86408 -29.35761,-4.22508 -41.10601,-7.11729c-11.7484,-2.89221 -23.05094,-6.63973 -29.38438,-10.23597c-6.33344,-3.59624 -8.90523,-7.31979 -8.61625,-11.34148c0.28899,-4.02168 3.65854,-9.24597 10.35018,-12.78864c6.69164,-3.54268 18.00014,-5.92292 29.79966,-8.46741c11.79952,-2.5445 24.47259,-5.87481 40.99744,-6.79954c16.52486,-0.92473 46.10273,0.45366 58.15167,1.25118c12.04894,0.79752 14.76321,2.98013 14.14196,3.53395m-45.4136,-3.45974c14.28013,-0.09736 30.76796,1.92263 43.90379,3.61666c13.13583,1.69403 26.16636,3.22411 34.91117,6.54751c8.74482,3.3234 15.21044,9.41168 17.55771,13.3929c2.34727,3.98122 0.91458,6.91699 -3.4741,10.49442c-4.38868,3.57743 -12.38798,7.76697 -22.85799,10.97015c-10.47001,3.20319 -25.60884,6.62399 -39.96206,8.24897c-14.35323,1.62498 -31.4756,1.75441 -46.1573,1.50091c-14.6817,-0.2535 -28.99497,-1.06792 -41.93292,-3.02192c-12.93795,-1.95401 -27.2146,-5.20384 -35.69478,-8.70211c-8.48018,-3.49827 -13.73059,-8.30808 -15.18629,-12.2875c-1.4557,-3.97942 1.56078,-7.47321 6.45209,-11.58903c4.8913,-4.11583 12.41685,-9.82945 22.89574,-13.1059c10.47889,-3.27645 26.85153,-5.55354 39.97759,-6.55281c13.12605,-0.99927 32.12462,0.53227 38.77874,0.55719c6.65412,0.02492 1.14868,-0.6682 1.14596,-0.40768" fill="none" id="svg_199" stroke="#00ff7f"/>
  </g>
  <g id="svg_202" transform="matrix(1 0 0 1 0 0)">
   <g id="svg_203" transform="translate(1058.463800878617 445.4298400878906) rotate(0 39.75332235897599 -24.87898396112081)">
    <path d="m-1.05582,0.81788c13.35537,-8.47383 68.18251,-42.80449 81.61829,-51.39373m-79.97174,50.77751c13.14487,-8.28871 65.39358,-40.94013 78.93466,-49.21535" fill="none" id="svg_204" stroke="#5fbf00"/>
   </g>
   <g id="svg_205" transform="translate(1058.463800878617 445.4298400878906) rotate(0 39.75332235897599 -24.87898396112081)">
    <path d="m62.31949,-25.73385c4.89938,-9.42286 10.89971,-15.32301 16.45349,-22.80955m-17.64025,22.93168c5.41552,-7.66946 13.42902,-16.33835 18.88088,-24.32109" fill="none" id="svg_206" stroke="#5fbf00"/>
   </g>
   <g id="svg_207" transform="translate(1058.463800878617 445.4298400878906) rotate(0 39.75332235897599 -24.87898396112081)">
    <path d="m51.51814,-43.18237c8.56588,-3.4677 18.19386,-3.50772 27.25484,-5.36103m-28.4416,5.48316c9.51109,-1.332 21.46236,-3.63981 29.68223,-6.87257" fill="none" id="svg_208" stroke="#5fbf00"/>
   </g>
  </g>
  <g id="svg_209" transform="matrix(1 0 0 1 0 0)">
   <path d="m1244.093311,372.563559c13.6606,0.29568 30.23266,2.08189 42.19712,3.63895c11.96446,1.55705 22.68283,2.97988 29.58966,5.70338c6.90684,2.72351 11.38617,7.40965 11.85135,10.63763c0.46518,3.22797 -2.94767,6.06301 -9.06028,8.7302c-6.11261,2.6672 -16.21775,5.46599 -27.61539,7.27294c-11.39764,1.80695 -26.65461,3.00196 -40.77047,3.56877c-14.11587,0.5668 -30.17732,0.52614 -43.92473,-0.16794c-13.74741,-0.69409 -28.23,-1.75063 -38.55972,-3.99655c-10.32972,-2.24592 -18.9847,-6.41564 -23.41862,-9.47898c-4.43393,-3.06334 -5.86534,-6.01146 -3.18492,-8.90105c2.68042,-2.88958 10.57554,-5.82758 19.26744,-8.43645c8.69191,-2.60886 19.99112,-5.63204 32.88399,-7.21673c12.89287,-1.5847 34.3419,-1.9627 44.47325,-2.29145c10.13136,-0.32876 11.93648,-0.09151 16.31487,0.31892c4.37839,0.41043 10.17597,1.84153 9.95547,2.14366m-19.00959,-2.54211c14.02851,0.04368 30.18859,1.27481 42.30641,3.18085c12.11781,1.90605 23.85497,5.58193 30.40048,8.2554c6.54552,2.67347 8.57795,4.46306 8.87261,7.78543c0.29467,3.32237 -1.25734,9.26572 -7.10463,12.14881c-5.84728,2.88309 -16.41959,3.3707 -27.97908,5.14975c-11.5595,1.77904 -27.055,4.71382 -41.3779,5.52453c-14.3229,0.8107 -30.87541,0.23215 -44.55949,-0.6603c-13.68408,-0.89245 -27.15626,-2.25318 -37.545,-4.69438c-10.38875,-2.44119 -20.43277,-6.69121 -24.78749,-9.95278c-4.35472,-3.26157 -4.35024,-6.45794 -1.34084,-9.61662c3.0094,-3.15867 10.298,-6.98035 19.39722,-9.33542c9.09923,-2.35508 22.24108,-3.79995 35.19814,-4.79503c12.95705,-0.99508 34.54174,-0.62263 42.54419,-1.17545c8.00246,-0.55281 4.7731,-2.06995 5.47054,-2.14143c0.69744,-0.07149 -0.96958,1.04517 -1.28592,1.7125" fill="none" id="svg_210" stroke="#00ff7f"/>
  </g>
  <g id="svg_213" transform="matrix(1 0 0 1 0 0)">
   <g id="svg_214" transform="translate(849.5761088334402 139.82811033550536) rotate(0 52.367146327517275 12.706289281250363)">
    <path d="m0.45171,0.50543c17.45549,4.14173 87.32254,21.25164 105.05286,25.18196m-106.27485,-25.96221c17.18139,3.74437 87.1614,20.10723 105.03551,24.32868" fill="none" id="svg_215" stroke="#5fbf00"/>
   </g>
   <g id="svg_216" transform="translate(849.5761088334402 139.82811033550536) rotate(0 52.367146327517275 12.706289281250363)">
    <path d="m75.3186,26.68077c11.53764,0.80908 19.72325,0.09951 28.99119,-3.94528m-30.39002,5.08738c11.32576,-0.75066 21.74514,-3.43935 30.06495,-4.53372" fill="none" id="svg_217" stroke="#5fbf00"/>
   </g>
   <g id="svg_218" transform="translate(849.5761088334402 139.82811033550536) rotate(0 52.367146327517275 12.706289281250363)">
    <path d="m80.00495,6.70183c9.96974,8.10515 16.44809,14.67401 24.30484,16.03366m-25.70367,-14.89156c9.74168,6.33557 18.48916,10.77455 25.3786,15.44522" fill="none" id="svg_219" stroke="#5fbf00"/>
   </g>
  </g>
  <g id="svg_220" transform="matrix(1 0 0 1 0 0)">
   <path d="m1029.652256,148.182909c9.32329,0.97505 18.54825,3.60531 24.01156,6.89148c5.46331,3.28617 9.52566,8.61758 8.76831,12.82554c-0.75735,4.20796 -6.78035,9.24861 -13.3124,12.4222c-6.53204,3.17359 -16.0125,5.75759 -25.87986,6.61933c-9.86736,0.86175 -23.78018,0.15216 -33.32429,-1.44886c-9.54411,-1.60103 -18.34542,-4.88816 -23.94035,-8.1573c-5.59493,-3.26914 -10.04531,-7.73051 -9.62923,-11.45755c0.41608,-3.72704 5.5009,-7.87792 12.1257,-10.9047c6.62479,-3.02678 17.89329,-6.14409 27.62307,-7.25597c9.72978,-1.11188 24.58612,0.42165 30.7556,0.5847c6.16948,0.16306 4.70609,0.33507 6.26127,0.39363c1.55517,0.05857 3.34841,-0.46616 3.06978,-0.04224m-34.20145,-3.5708c9.24886,-0.76039 22.0571,1.25038 31.35958,3.62171c9.30248,2.37133 19.82329,6.77487 24.45531,10.60626c4.63201,3.83138 5.56308,8.43284 3.33679,12.38207c-2.22629,3.94922 -9.50344,8.76159 -16.69453,11.31329c-7.1911,2.55169 -16.52133,3.73714 -26.45206,3.99689c-9.93072,0.25975 -23.98347,-0.76051 -33.1323,-2.43838c-9.14883,-1.67788 -17.28716,-3.92943 -21.76067,-7.62886c-4.4735,-3.69943 -6.77733,-10.29313 -5.08035,-14.56772c1.69698,-4.2746 7.9286,-8.43124 15.26225,-11.07984c7.33365,-2.64861 23.53975,-4.07723 28.73964,-4.81181c5.19988,-0.73458 2.27368,0.4021 2.45967,0.40433c0.18599,0.00222 -1.14255,-0.87196 -1.34372,-0.39096" fill="none" id="svg_221" stroke="#00ff7f"/>
  </g>
  <g id="svg_224" transform="matrix(1 0 0 1 0 0)">
   <g id="svg_225" transform="translate(841.2736259401377 105.27803786691675) rotate(0 40.55830173369475 -15.659211441026429)">
    <path d="m1.12324,-1.04141c13.6697,-4.99154 66.40803,-24.34418 79.73957,-29.4359m-80.60901,31.50356c13.66045,-5.30844 66.52867,-28.09919 79.94702,-33.37092" fill="none" id="svg_226" stroke="#5fbf00"/>
   </g>
   <g id="svg_227" transform="translate(841.2736259401377 105.27803786691675) rotate(0 40.55830173369475 -15.659211441026429)">
    <path d="m56.34271,-11.17331c7.14178,-3.91894 9.79114,-9.26731 25.12252,-23.03665m-23.688,22.76684c8.45497,-6.70973 15.38374,-13.14972 22.07608,-21.6659" fill="none" id="svg_228" stroke="#5fbf00"/>
   </g>
   <g id="svg_229" transform="translate(841.2736259401377 105.27803786691675) rotate(0 40.55830173369475 -15.659211441026429)">
    <path d="m48.49343,-30.13403c8.65739,-0.12977 12.90578,-1.61551 32.9718,-4.07593m-31.53728,3.80612c10.98855,-0.43032 20.51998,-0.58333 29.92536,-2.70518" fill="none" id="svg_230" stroke="#5fbf00"/>
   </g>
  </g>
  <g id="svg_231" transform="matrix(1 0 0 1 0 0)">
   <path d="m1017.287487,46.807931c13.3464,-0.11589 27.75722,-0.16635 39.13368,1.37888c11.37646,1.54523 22.73982,5.12143 29.12508,7.8925c6.38526,2.77108 9.49766,5.89739 9.18649,8.73395c-0.31117,2.83656 -4.29719,5.75068 -11.0535,8.2854c-6.75631,2.53472 -17.63365,5.10037 -29.48436,6.9229c-11.85071,1.82253 -27.58849,3.54356 -41.61989,4.01228c-14.0314,0.46873 -29.36618,0.12934 -42.56853,-1.19992c-13.20235,-1.32927 -27.45684,-4.42785 -36.64556,-6.77566c-9.18872,-2.34781 -15.46602,-4.568 -18.48675,-7.31121c-3.02073,-2.74322 -3.24598,-6.36999 0.36239,-9.14809c3.60837,-2.7781 11.62554,-5.33279 21.28783,-7.52051c9.66229,-2.18773 21.22978,-4.51296 36.6859,-5.60585c15.45612,-1.0929 45.09258,-1.28229 56.0508,-0.95153c10.95822,0.33076 10.35442,2.5209 9.69852,2.93608m-70.60762,-1.23858c12.12561,-0.96017 29.97939,-0.51907 44.1877,-0.08267c14.20831,0.43639 29.4363,1.57504 41.06215,2.70106c11.62585,1.12601 21.58479,1.91769 28.69294,4.05501c7.10816,2.13731 13.10961,5.65269 13.95598,8.76888c0.84637,3.11619 -2.79789,6.85224 -8.87775,9.92824c-6.07987,3.076 -16.05488,6.60982 -27.60144,8.52775c-11.54656,1.91793 -27.44185,2.56369 -41.67793,2.97982c-14.23609,0.41614 -30.32447,0.84583 -43.73856,-0.48303c-13.41409,-1.32885 -26.67672,-5.03231 -36.746,-7.4901c-10.06927,-2.45779 -19.78584,-4.83067 -23.66966,-7.25664c-3.88382,-2.42596 -2.59184,-4.73389 0.36672,-7.29914c2.95855,-2.56524 8.30696,-5.47209 17.38462,-8.09232c9.07766,-2.62022 30.93154,-6.67248 37.08133,-7.62901c6.14978,-0.95653 -0.41551,1.35051 -0.18261,1.88981" fill="none" id="svg_232" stroke="#00ff7f"/>
  </g>
  <g id="svg_235" transform="matrix(1 0 0 1 0 0)">
   <g id="svg_236" transform="translate(798.4886142626285 99.2349853515625) rotate(0 -4.191647055965177 -24.049426649491892)">
    <path d="m0.56717,1.07061c-1.20009,-7.9961 -7.03463,-40.2373 -8.63921,-48.55199m7.47784,48.06845c-1.27025,-8.37264 -7.35275,-41.69751 -8.35626,-49.75653" fill="none" id="svg_237" stroke="#5fbf00"/>
   </g>
   <g id="svg_238" transform="translate(798.4886142626285 99.2349853515625) rotate(0 -4.191647055965177 -24.049426649491892)">
    <path d="m4.70028,-27.51348c-3.19156,-6.46481 -8.11659,-11.45751 -12.97584,-23.15128m11.31406,23.03242c-4.189,-8.09401 -7.74479,-14.55811 -12.44315,-21.5448" fill="none" id="svg_239" stroke="#5fbf00"/>
   </g>
   <g id="svg_240" transform="translate(798.4886142626285 99.2349853515625) rotate(0 -4.191647055965177 -24.049426649491892)">
    <path d="m-11.85405,-24.90073c0.56167,-7.13713 -0.59935,-12.7239 3.57849,-25.76403m-5.24028,25.64517c1.28884,-8.9389 3.20422,-16.26651 4.11119,-24.15755" fill="none" id="svg_241" stroke="#5fbf00"/>
   </g>
  </g>
  <g id="svg_242" transform="matrix(1 0 0 1 0 0)">
   <path d="m824.675352,10.68165c12.54399,0.77714 25.29567,3.80683 34.75268,5.9106c9.45702,2.10377 18.35907,3.86523 21.9894,6.71202c3.63034,2.84678 2.96433,7.2608 -0.20739,10.3687c-3.17172,3.10791 -9.71453,6.06557 -18.82291,8.27872c-9.10838,2.21314 -23.10888,3.97066 -35.82736,5.00018c-12.71849,1.02952 -27.51389,1.59356 -40.48356,1.17693c-12.96968,-0.41662 -26.84202,-1.65106 -37.33452,-3.67667c-10.49249,-2.0256 -20.68047,-5.41716 -25.62043,-8.47697c-4.93996,-3.0598 -6.21994,-6.64614 -4.01932,-9.88186c2.20063,-3.23572 8.92706,-7.08301 17.22306,-9.53246c8.29601,-2.44945 20.22101,-4.04363 32.55298,-5.16423c12.33197,-1.1206 30.8859,-1.71746 41.43885,-1.55936c10.55296,0.15809 17.04158,2.08902 21.87887,2.50796c4.83728,0.41893 7.49262,-0.29842 7.14482,0.00563m-71.78707,0.46615c11.25974,-1.30912 28.39853,-3.09997 41.80783,-2.75143c13.40929,0.34854 27.7573,3.00546 38.64796,4.84268c10.89066,1.83721 20.55681,3.52443 26.696,6.18059c6.1392,2.65616 10.91705,6.79765 10.13916,9.75636c-0.77789,2.95871 -7.40428,5.18072 -14.80651,7.99591c-7.40223,2.81519 -17.79693,7.16238 -29.60688,8.89524c-11.80995,1.73285 -27.72823,1.87745 -41.25282,1.50189c-13.52458,-0.37556 -28.58216,-1.98856 -39.8947,-3.75527c-11.31254,-1.7667 -21.19447,-4.37907 -27.98055,-6.84494c-6.78608,-2.46587 -12.44817,-5.08472 -12.73591,-7.95025c-0.28774,-2.86554 4.59501,-6.44485 11.00948,-9.24296c6.41447,-2.79811 20.89697,-5.73808 27.47735,-7.5457c6.58037,-1.80762 9.92099,-2.90881 12.00492,-3.30003c2.08393,-0.39121 0.20666,0.45263 0.49866,0.95275" fill="none" id="svg_243" stroke="#00ff7f"/>
  </g>
  <a id="svg_248" xlink:href="/inspiration/">
   <g id="svg_167" transform="matrix(1 0 0 1 0 0)">
    <text fill="#ff0000" font-family="Virgil, Segoe UI Emoji" font-size="20px" id="svg_168" text-anchor="start" x="49.592682" y="301.281586">Inspiration</text>
   </g>
  </a>
  <a id="svg_249" xlink:href="/design/">
   <g id="svg_145" transform="matrix(1 0 0 1 0 0)">
    <text fill="#ff0000" font-family="Virgil, Segoe UI Emoji" font-size="20px" id="svg_146" text-anchor="start" x="107.061005" y="400.308136">Design</text>
   </g>
  </a>
  <a id="svg_250" xlink:href="/version-control/">
   <g id="svg_101" transform="matrix(1 0 0 1 0 0)">
    <text fill="#ff0000" font-family="Virgil, Segoe UI Emoji" font-size="20px" id="svg_102" text-anchor="start" x="335.653229" y="316.607941">Version Control</text>
   </g>
  </a>
  <a id="svg_251" xlink:href="/invoicing/">
   <g id="svg_112" transform="matrix(1 0 0 1 0 0)">
    <text fill="#ff0000" font-family="Virgil, Segoe UI Emoji" font-size="20px" id="svg_113" text-anchor="start" x="332.177216" y="476.586212">Invoicing</text>
   </g>
  </a>
  <a id="svg_252" xlink:href="/design/fonts/">
   <g id="svg_156" transform="matrix(1 0 0 1 0 0)">
    <text fill="#ff0000" font-family="Virgil, Segoe UI Emoji" font-size="20px" id="svg_157" text-anchor="start" x="87.75882" y="530.256348">Fonts</text>
   </g>
  </a>
  <a id="svg_253" xlink:href="/developer-news/">
   <g id="svg_123" transform="matrix(1 0 0 1 0 0)">
    <text fill="#ff0000" font-family="Virgil, Segoe UI Emoji" font-size="20px" id="svg_124" text-anchor="start" x="312.7883" y="636.894043">Developer News</text>
   </g>
  </a>
  <a id="svg_254" xlink:href="/analytics/">
   <g id="svg_90" transform="matrix(1 0 0 1 0 0)">
    <text fill="#ff0000" font-family="Virgil, Segoe UI Emoji" font-size="20px" id="svg_91" text-anchor="start" x="418.008514" y="222.493622">Analytics</text>
   </g>
  </a>
  <a id="svg_255" xlink:href="/cheetsheets/">
   <g id="svg_79" transform="matrix(1 0 0 1 0 0)">
    <text fill="#ff0000" font-family="Virgil, Segoe UI Emoji" font-size="20px" id="svg_80" text-anchor="start" x="521.146973" y="142.421173">Cheatsheets</text>
   </g>
  </a>
  <a id="svg_256" xlink:href="/images/">
   <g id="svg_68" transform="matrix(1 0 0 1 0 0)">
    <text fill="#ff0000" font-family="Virgil, Segoe UI Emoji" font-size="20px" id="svg_69" text-anchor="start" x="603.344727" y="213.247589">Images</text>
   </g>
  </a>
  <a id="svg_257" xlink:href="/developer-news/dev-blogs/">
   <g id="svg_246" transform="matrix(1 0 0 1 0 0)">
    <text fill="#ff0000" font-family="Virgil, Segoe UI Emoji" font-size="20px" id="svg_247" text-anchor="start" x="519.119385" y="709.667725">Dev Blogs</text>
   </g>
  </a>
  <a id="svg_258" xlink:href="/templates/">
   <g id="svg_57" transform="matrix(1 0 0 1 0 0)">
    <text fill="#ff0000" font-family="Virgil, Segoe UI Emoji" font-size="20px" id="svg_58" text-anchor="start" x="600.443848" y="619.562866">Templates</text>
   </g>
  </a>
  <a id="svg_259" xlink:href="/cms/">
   <g id="svg_134" transform="matrix(1 0 0 1 0 0)">
    <text fill="#ff0000" font-family="Virgil, Segoe UI Emoji" font-size="20px" id="svg_135" text-anchor="start" x="781.767822" y="130.967926">CMS&#x27;s</text>
   </g>
  </a>
  <a id="svg_260" xlink:href="/cms/headless/">
   <g id="svg_244" transform="matrix(1 0 0 1 0 0)">
    <text fill="#ff0000" font-family="Virgil, Segoe UI Emoji" font-size="20px" id="svg_245" text-anchor="start" x="752.492554" y="33.357407">Headless</text>
   </g>
  </a>
  <a id="svg_261" xlink:href="/cms/e-commerce/">
   <g id="svg_233" transform="matrix(1 0 0 1 0 0)">
    <text fill="#ff0000" font-family="Virgil, Segoe UI Emoji" font-size="20px" id="svg_234" text-anchor="start" x="947.187012" y="69.809479">E-commerce</text>
   </g>
  </a>
  <a id="svg_262" xlink:href="/cms/blogs/">
   <g id="svg_222" transform="matrix(1 0 0 1 0 0)">
    <text fill="#ff0000" font-family="Virgil, Segoe UI Emoji" font-size="20px" id="svg_223" text-anchor="start" x="980.356567" y="172.243134">Blogs</text>
   </g>
  </a>
  <a id="svg_263" xlink:href="/scheduling/">
   <g id="svg_26" transform="matrix(1 0 0 1 0 0)">
    <text fill="#ff0000" font-family="Virgil, Segoe UI Emoji" font-size="20px" id="svg_27" text-anchor="start" x="871.664795" y="291.120697">Scheduling</text>
   </g>
  </a>
  <a id="svg_264" xlink:href="/hosting/">
   <g id="svg_15" transform="matrix(1 0 0 1 0 0)">
    <text fill="#ff0000" font-family="Virgil, Segoe UI Emoji" font-size="20px" id="svg_16" text-anchor="start" x="945.225464" y="370.828278">Hosting</text>
   </g>
  </a>
  <a id="svg_265" xlink:href="/productivity/">
   <g id="svg_189" transform="matrix(1 0 0 1 0 0)">
    <text fill="#ff0000" font-family="Virgil, Segoe UI Emoji" font-size="20px" id="svg_190" text-anchor="start" x="961.312012" y="478.301971">Productivity</text>
   </g>
  </a>
  <a id="svg_266" xlink:href="/productivity/time-tracking/">
   <g id="svg_211" transform="matrix(1 0 0 1 0 0)">
    <text fill="#ff0000" font-family="Virgil, Segoe UI Emoji" font-size="20px" id="svg_212" text-anchor="start" x="1164.263184" y="395.532135">Time Tracking</text>
   </g>
  </a>
  <a id="svg_267" xlink:href="/productivity/task-management/">
   <g id="svg_200" transform="matrix(1 0 0 1 0 0)">
    <text fill="#ff0000" font-family="Virgil, Segoe UI Emoji" font-size="20px" id="svg_201" text-anchor="start" x="1052.679077" y="596.61084">Task Management</text>
   </g>
  </a>
  <a id="svg_268" xlink:href="/productivity/notes/">
   <g id="svg_187" transform="matrix(1 0 0 1 0 0)">
    <text fill="#ff0000" font-family="Virgil, Segoe UI Emoji" font-size="20px" id="svg_188" text-anchor="start" x="915.055054" y="607.626709">Notes</text>
   </g>
  </a>
 </g>
</svg>